<svg width="650" height="650" viewBox="0 0 650 650" fill="none" xmlns="http://www.w3.org/2000/svg">
<path d="M144.872 479.957C144.872 479.957 148.343 483.827 154.646 483.827C160.551 483.827 163.982 480.037 163.982 475.529C163.982 466.473 150.657 467.71 150.657 462.683C150.657 460.688 152.532 459.292 154.926 459.292C158.476 459.292 161.189 461.765 161.189 461.765L163.423 457.576C163.423 457.576 160.551 454.544 154.966 454.544C149.54 454.544 145.47 458.055 145.47 462.763C145.47 471.46 158.835 470.582 158.835 475.649C158.835 477.963 156.88 479.08 154.726 479.08C150.737 479.08 147.665 476.088 147.665 476.088L144.872 479.957Z" fill="#000066"/>
<path d="M167.162 469.066C167.162 477.404 173.146 483.827 181.803 483.827C189.024 483.827 192.934 479.239 192.934 479.239L190.221 475.529C190.221 475.529 186.91 479.12 182.003 479.12C176.098 479.12 172.468 474.372 172.468 468.986C172.468 463.72 175.979 459.252 181.963 459.252C186.471 459.252 189.703 462.244 189.703 462.244L192.176 458.414C192.176 458.414 188.626 454.544 181.724 454.544C173.386 454.544 167.162 460.848 167.162 469.066Z" fill="#000066"/>
<path d="M197.675 483.349H202.821V471.46H215.787V483.349H220.933V455.023H215.787V467.031H202.821V455.023H197.675V483.349Z" fill="#000066"/>
<path d="M226.148 468.986C226.148 477.324 232.451 483.827 240.789 483.827C249.127 483.827 255.431 477.324 255.431 468.986C255.431 460.888 249.127 454.544 240.789 454.544C232.451 454.544 226.148 460.888 226.148 468.986ZM231.454 468.986C231.454 463.401 235.603 459.252 240.789 459.252C245.975 459.252 250.125 463.401 250.125 468.986C250.125 474.811 245.975 479.12 240.789 479.12C235.603 479.12 231.454 474.811 231.454 468.986Z" fill="#000066"/>
<path d="M258.718 468.986C258.718 477.324 265.022 483.827 273.36 483.827C281.698 483.827 288.001 477.324 288.001 468.986C288.001 460.888 281.698 454.544 273.36 454.544C265.022 454.544 258.718 460.888 258.718 468.986ZM264.024 468.986C264.024 463.401 268.173 459.252 273.36 459.252C278.546 459.252 282.695 463.401 282.695 468.986C282.695 474.811 278.546 479.12 273.36 479.12C268.173 479.12 264.024 474.811 264.024 468.986Z" fill="#000066"/>
<path d="M293.244 483.349H310.638V478.92H298.39V455.023H293.244V483.349Z" fill="#000066"/>
<path d="M322.496 468.986C322.496 477.324 328.799 483.827 337.137 483.827C345.476 483.827 351.779 477.324 351.779 468.986C351.779 460.888 345.476 454.544 337.137 454.544C328.799 454.544 322.496 460.888 322.496 468.986ZM327.802 468.986C327.802 463.401 331.951 459.252 337.137 459.252C342.324 459.252 346.473 463.401 346.473 468.986C346.473 474.811 342.324 479.12 337.137 479.12C331.951 479.12 327.802 474.811 327.802 468.986Z" fill="#000066"/>
<path d="M357.021 483.349H362.168V471.899H371.543V467.47H362.168V459.451H373.299V455.023H357.021V483.349Z" fill="#000066"/>
<path d="M144.872 523.957C144.872 523.957 148.343 527.827 154.646 527.827C160.551 527.827 163.982 524.037 163.982 519.529C163.982 510.473 150.657 511.71 150.657 506.683C150.657 504.688 152.532 503.292 154.926 503.292C158.476 503.292 161.189 505.765 161.189 505.765L163.423 501.576C163.423 501.576 160.551 498.544 154.966 498.544C149.54 498.544 145.47 502.055 145.47 506.763C145.47 515.46 158.835 514.582 158.835 519.649C158.835 521.963 156.88 523.08 154.726 523.08C150.737 523.08 147.665 520.088 147.665 520.088L144.872 523.957Z" fill="#000066"/>
<path d="M167.162 513.066C167.162 521.404 173.146 527.827 181.803 527.827C189.024 527.827 192.934 523.239 192.934 523.239L190.221 519.529C190.221 519.529 186.91 523.12 182.003 523.12C176.098 523.12 172.468 518.372 172.468 512.986C172.468 507.72 175.979 503.252 181.963 503.252C186.471 503.252 189.703 506.244 189.703 506.244L192.176 502.414C192.176 502.414 188.626 498.544 181.724 498.544C173.386 498.544 167.162 504.848 167.162 513.066Z" fill="#000066"/>
<path d="M197.675 527.349H202.821V499.023H197.675V527.349Z" fill="#000066"/>
<path d="M209.986 527.349H227.58V522.92H215.132V515.3H224.667V510.872H215.132V503.451H226.941V499.023H209.986V527.349Z" fill="#000066"/>
<path d="M232.933 527.349H238.08V511.031C238.08 509.356 237.801 506.643 237.801 506.643H237.88C237.88 506.643 239.157 509.396 240.234 511.031L250.966 527.349H256.073V499.023H250.966V515.38C250.966 517.056 251.245 519.768 251.245 519.768H251.166C251.166 519.768 249.889 517.016 248.812 515.38L238.08 499.023H232.933V527.349Z" fill="#000066"/>
<path d="M261.29 513.066C261.29 521.404 267.274 527.827 275.931 527.827C283.152 527.827 287.062 523.239 287.062 523.239L284.349 519.529C284.349 519.529 281.038 523.12 276.131 523.12C270.226 523.12 266.596 518.372 266.596 512.986C266.596 507.72 270.106 503.252 276.091 503.252C280.599 503.252 283.83 506.244 283.83 506.244L286.304 502.414C286.304 502.414 282.753 498.544 275.851 498.544C267.513 498.544 261.29 504.848 261.29 513.066Z" fill="#000066"/>
<path d="M291.802 527.349H309.396V522.92H296.949V515.3H306.484V510.872H296.949V503.451H308.758V499.023H291.802V527.349Z" fill="#000066"/>
<path d="M322.656 519.33C322.656 524.117 326.645 527.827 332.789 527.827C339.172 527.827 342.962 523.997 342.962 518.213V514.861H346.633V510.393H342.962V506.723H337.895V510.393H333.387C329.996 510.393 329.079 508.279 329.079 506.643C329.079 504.169 331.034 502.853 333.427 502.853C334.345 502.853 335.302 503.092 335.302 503.092L336.539 499.023C336.539 499.023 334.624 498.544 332.829 498.544C327.922 498.544 323.892 500.978 323.892 506.005C323.892 510.792 327.483 512.188 327.483 512.188V512.268C324.491 513.305 322.656 516.258 322.656 519.33ZM327.922 519.01C327.922 516.258 329.956 514.861 333.108 514.861H337.895V517.933C337.895 521.364 335.981 523.12 332.789 523.12C329.877 523.12 327.922 521.284 327.922 519.01Z" fill="#000066"/>
<path d="M152.891 571.349H158.037V547.451H167.333V543.023H143.595V547.451H152.891V571.349Z" fill="#000066"/>
<path d="M171.065 571.349H188.659V566.92H176.211V559.3H185.746V554.872H176.211V547.451H188.02V543.023H171.065V571.349Z" fill="#000066"/>
<path d="M191.902 557.066C191.902 565.404 197.886 571.827 206.543 571.827C213.764 571.827 217.674 567.239 217.674 567.239L214.961 563.529C214.961 563.529 211.65 567.12 206.743 567.12C200.838 567.12 197.208 562.372 197.208 556.986C197.208 551.72 200.718 547.252 206.703 547.252C211.211 547.252 214.442 550.244 214.442 550.244L216.916 546.414C216.916 546.414 213.365 542.544 206.463 542.544C198.125 542.544 191.902 548.848 191.902 557.066Z" fill="#000066"/>
<path d="M222.414 571.349H227.561V559.46H240.527V571.349H245.673V543.023H240.527V555.031H227.561V543.023H222.414V571.349Z" fill="#000066"/>
<path d="M252.842 571.349H257.989V555.031C257.989 553.356 257.709 550.643 257.709 550.643H257.789C257.789 550.643 259.066 553.396 260.143 555.031L270.875 571.349H275.981V543.023H270.875V559.38C270.875 561.056 271.154 563.768 271.154 563.768H271.074C271.074 563.768 269.798 561.016 268.72 559.38L257.989 543.023H252.842V571.349Z" fill="#000066"/>
<path d="M281.198 556.986C281.198 565.324 287.502 571.827 295.84 571.827C304.178 571.827 310.481 565.324 310.481 556.986C310.481 548.888 304.178 542.544 295.84 542.544C287.502 542.544 281.198 548.888 281.198 556.986ZM286.504 556.986C286.504 551.401 290.653 547.252 295.84 547.252C301.026 547.252 305.175 551.401 305.175 556.986C305.175 562.811 301.026 567.12 295.84 567.12C290.653 567.12 286.504 562.811 286.504 556.986Z" fill="#000066"/>
<path d="M315.724 571.349H333.118V566.92H320.87V543.023H315.724V571.349Z" fill="#000066"/>
<path d="M334.807 556.986C334.807 565.324 341.111 571.827 349.449 571.827C357.787 571.827 364.09 565.324 364.09 556.986C364.09 548.888 357.787 542.544 349.449 542.544C341.111 542.544 334.807 548.888 334.807 556.986ZM340.113 556.986C340.113 551.401 344.262 547.252 349.449 547.252C354.635 547.252 358.784 551.401 358.784 556.986C358.784 562.811 354.635 567.12 349.449 567.12C344.262 567.12 340.113 562.811 340.113 556.986Z" fill="#000066"/>
<path d="M367.418 557.146C367.418 566.042 373.841 571.827 381.301 571.827C386.568 571.827 389.52 568.795 389.52 568.795H389.6C389.6 568.795 389.56 569.394 389.56 569.992V571.349H393.948V556.428H384.972V560.856H389.32V564.167C389.32 564.167 386.488 567.12 382.219 567.12C376.913 567.12 372.724 563.13 372.724 556.986C372.724 551.64 376.115 547.252 382.458 547.252C386.967 547.252 389.999 549.965 389.999 549.965L392.552 546.135C392.552 546.135 388.961 542.544 382.02 542.544C373.602 542.544 367.418 548.927 367.418 557.146Z" fill="#000066"/>
<path d="M405.431 571.349H410.578V559.5L419.993 543.023H414.169L409.78 551.361C408.862 553.116 408.065 555.151 408.065 555.151H407.985C407.945 555.191 407.187 553.116 406.269 551.361L401.841 543.023H396.016L405.431 559.5V571.349Z" fill="#000066"/>
<path d="M507.436 405.235H143.942V426.246H507.436V405.235Z" fill="#6DC201"/>
<path d="M146.436 371.108C146.436 381.24 153.764 388.122 164.725 388.122C175.621 388.122 182.95 381.24 182.95 371.108V342.113H174.729V371.044C174.729 377.162 170.715 380.603 164.661 380.603C158.607 380.603 154.656 377.162 154.656 371.108V342.113H146.436V371.108Z" fill="#000066"/>
<path d="M193.808 387.357H202.029V361.294C202.029 358.618 201.582 354.285 201.582 354.285H201.71C201.71 354.285 203.749 358.682 205.47 361.294L222.611 387.357H230.768V342.113H222.611V368.24C222.611 370.917 223.057 375.25 223.057 375.25H222.93C222.93 375.25 220.891 370.853 219.17 368.24L202.029 342.113H193.808V387.357Z" fill="#000066"/>
<path d="M242.223 387.357H250.444V342.113H242.223V387.357Z" fill="#000066"/>
<path d="M272.594 387.357H280.751L297.255 342.113H288.461L278.457 371.618C277.564 374.23 276.8 378.245 276.736 378.245H276.609C276.545 378.245 275.78 374.23 274.888 371.618L264.947 342.113H256.089L272.594 387.357Z" fill="#000066"/>
<path d="M302.898 387.357H331V380.284H311.119V368.113H326.349V361.039H311.119V349.187H329.981V342.113H302.898V387.357Z" fill="#000066"/>
<path d="M339.552 387.357H347.772V370.471H355.674L364.659 387.357H373.835L364.532 370.471C363.64 368.877 363.002 368.24 363.002 368.24V368.113C367.782 366.201 370.649 361.167 370.649 355.75C370.649 349.76 367.782 345.427 363.257 343.388C361.282 342.496 359.051 342.113 354.145 342.113H339.552V387.357ZM347.772 363.333V349.187H354.017C360.453 349.187 362.301 351.863 362.301 356.196C362.301 360.721 359.561 363.333 355.164 363.333H347.772Z" fill="#000066"/>
<path d="M378.054 381.941C378.054 381.941 383.598 388.122 393.667 388.122C403.098 388.122 408.578 382.068 408.578 374.867C408.578 360.402 387.294 362.378 387.294 354.348C387.294 351.162 390.289 348.932 394.113 348.932C399.784 348.932 404.117 352.883 404.117 352.883L407.686 346.192C407.686 346.192 403.098 341.349 394.176 341.349C385.51 341.349 379.01 346.956 379.01 354.476C379.01 368.368 400.358 366.966 400.358 375.059C400.358 378.755 397.235 380.539 393.794 380.539C387.422 380.539 382.515 375.76 382.515 375.76L378.054 381.941Z" fill="#000066"/>
<path d="M416.78 387.357H425V342.113H416.78V387.357Z" fill="#000066"/>
<path d="M445.812 387.357H454.033V349.187H468.88V342.113H430.964V349.187H445.812V387.357Z" fill="#000066"/>
<path d="M486.139 387.357H494.359V368.431L509.398 342.113H500.095L493.085 355.432C491.619 358.235 490.345 361.485 490.345 361.485H490.217C490.154 361.549 488.943 358.235 487.477 355.432L480.404 342.113H471.1L486.139 368.431V387.357Z" fill="#000066"/>
<path d="M285.722 150.022C244.751 150.022 211.541 183.248 211.541 224.239V225.21C211.541 268.74 246.766 303.982 290.274 303.982C316.395 303.982 339.455 291.289 353.784 271.726L323.26 249.103C317.066 260.75 304.827 268.74 290.722 268.74C273.408 268.74 258.93 256.793 254.975 240.74H357.963C358.038 240.591 358.038 240.516 358.112 240.367C358.261 239.62 358.485 238.873 358.56 238.127C359.381 233.647 359.829 228.943 359.829 224.239C359.903 183.248 326.693 150.022 285.722 150.022ZM258.483 207.365C261.99 194.97 273.334 185.861 286.842 185.861C300.349 185.861 311.693 194.97 315.201 207.365H258.483Z" fill="#000066"/>
<path d="M196.636 150.022H146.311V303.982H196.636V150.022Z" fill="#000066"/>
<path d="M201.653 109.632C201.653 126.261 188.173 139.741 171.544 139.741C154.916 139.741 141.436 126.261 141.436 109.632C141.436 93.0039 154.916 79.5238 171.544 79.5238C188.173 79.5238 201.653 93.0039 201.653 109.632Z" fill="#46BEFF"/>
</svg>
