<svg width="287" height="93" viewBox="20 20 287 93" fill="none" xmlns="http://www.w3.org/2000/svg">
<path d="M38.0162 29.0081C38.0162 33.9831 33.9831 38.0162 29.0081 38.0162C24.0331 38.0162 20 33.9831 20 29.0081C20 24.0331 24.0331 20 29.0081 20C33.9831 20 38.0162 24.0331 38.0162 29.0081Z" fill="#47BFFF"/>
<path d="M63.1685 41.2598C50.9104 41.2598 40.9745 51.2005 40.9745 63.4646V63.755C40.9745 76.7785 51.5133 87.3224 64.5305 87.3224C72.3452 87.3224 79.2446 83.5248 83.5315 77.6721L74.3994 70.9034C72.5462 74.3882 68.8844 76.7785 64.6644 76.7785C59.4843 76.7785 55.1527 73.2043 53.9694 68.4014H84.7819C84.8042 68.3568 84.8042 68.3344 84.8265 68.2897C84.8712 68.0664 84.9382 67.843 84.9605 67.6196C85.2061 66.2793 85.3401 64.8719 85.3401 63.4646C85.3624 51.2005 75.4265 41.2598 63.1685 41.2598ZM55.0188 58.416C56.0682 54.7077 59.462 51.9824 63.5034 51.9824C67.5447 51.9824 70.9386 54.7077 71.988 58.416H55.0188Z" fill="#000066"/>
<path d="M36.5151 41.2598H21.4584V87.3224H36.5151V41.2598Z" fill="#000066"/>
<path d="M20 107.881C20 110.905 22.1872 112.959 25.4586 112.959C28.7109 112.959 30.8981 110.905 30.8981 107.881V99.2274H28.4446V107.862C28.4446 109.688 27.2464 110.715 25.4395 110.715C23.6327 110.715 22.4535 109.688 22.4535 107.881V99.2274H20V107.881Z" fill="#000066"/>
<path d="M34.139 112.731H36.5925V104.952C36.5925 104.153 36.4594 102.86 36.4594 102.86H36.4974C36.4974 102.86 37.106 104.172 37.6195 104.952L42.7358 112.731H45.1702V99.2274H42.7358V107.025C42.7358 107.824 42.8689 109.118 42.8689 109.118H42.8309C42.8309 109.118 42.2222 107.805 41.7087 107.025L36.5925 99.2274H34.139V112.731Z" fill="#000066"/>
<path d="M48.5893 112.731H51.0428V99.2274H48.5893V112.731Z" fill="#000066"/>
<path d="M57.6538 112.731H60.0883L65.0143 99.2274H62.3896L59.4036 108.033C59.1373 108.813 58.9091 110.011 58.8901 110.011H58.852C58.833 110.011 58.6048 108.813 58.3385 108.033L55.3715 99.2274H52.7278L57.6538 112.731Z" fill="#000066"/>
<path d="M66.6986 112.731H75.0861V110.62H69.1521V106.987H73.6977V104.876H69.1521V101.339H74.7818V99.2274H66.6986V112.731Z" fill="#000066"/>
<path d="M77.6384 112.731H80.0919V107.691H82.4503L85.1321 112.731H87.8709L85.094 107.691C84.8278 107.216 84.6376 107.025 84.6376 107.025V106.987C86.064 106.417 86.9199 104.914 86.9199 103.298C86.9199 101.51 86.064 100.216 84.7136 99.6078C84.124 99.3415 83.4584 99.2274 81.9939 99.2274H77.6384V112.731ZM80.0919 105.561V101.339H81.9558C83.8768 101.339 84.4284 102.137 84.4284 103.431C84.4284 104.781 83.6105 105.561 82.2982 105.561H80.0919Z" fill="#000066"/>
<path d="M89.13 111.115C89.13 111.115 90.7847 112.959 93.7898 112.959C96.6046 112.959 98.2403 111.153 98.2403 109.003C98.2403 104.686 91.8878 105.276 91.8878 102.879C91.8878 101.928 92.7817 101.263 93.9229 101.263C95.6156 101.263 96.909 102.442 96.909 102.442L97.974 100.445C97.974 100.445 96.6046 98.9992 93.9419 98.9992C91.3553 98.9992 89.4153 100.673 89.4153 102.917C89.4153 107.063 95.7868 106.645 95.7868 109.06C95.7868 110.164 94.8549 110.696 93.8278 110.696C91.9259 110.696 90.4614 109.27 90.4614 109.27L89.13 111.115Z" fill="#000066"/>
<path d="M100.688 112.731H103.142V99.2274H100.688V112.731Z" fill="#000066"/>
<path d="M109.353 112.731H111.807V101.339H116.238V99.2274H104.922V101.339H109.353V112.731Z" fill="#000066"/>
<path d="M121.39 112.731H123.843V107.082L128.332 99.2274H125.555L123.463 103.202C123.025 104.039 122.645 105.009 122.645 105.009H122.607C122.588 105.028 122.226 104.039 121.789 103.202L119.678 99.2274H116.901L121.39 107.082V112.731Z" fill="#000066"/>
<mask id="path-3-inside-1_2015_76" fill="white">
<path d="M148.332 38.7291H306.332V112.729H148.332V38.7291Z"/>
</mask>
<path d="M151.332 112.729V38.7291H145.332V112.729H151.332Z" fill="#000066" mask="url(#path-3-inside-1_2015_76)"/>
<path d="M170.132 73.7291V59.5291H172.712V73.7291H170.132ZM176.304 73.7291V59.5291H184.804V61.7491H178.884V65.4691H183.664V67.6891H178.884V71.5091H185.124V73.7291H176.304ZM186.347 73.7291L190.767 66.5291L186.527 59.5291H189.467L191.407 63.0091C191.867 63.8291 192.307 64.7491 192.307 64.7491H192.347C192.347 64.7491 192.747 63.8491 193.207 63.0091L195.187 59.5291H198.147L193.867 66.5291L198.307 73.7291H195.407L193.207 69.9091C192.747 69.0891 192.327 68.2291 192.327 68.2291H192.287C192.287 68.2291 191.887 69.0891 191.407 69.9091L189.227 73.7291H186.347ZM205.327 73.7291V59.5291H209.907C211.447 59.5291 212.147 59.6491 212.767 59.9291C214.187 60.5691 215.087 61.9291 215.087 63.8091C215.087 65.5091 214.187 67.0891 212.687 67.6891V67.7291C212.687 67.7291 212.887 67.9291 213.167 68.4291L216.087 73.7291H213.207L210.387 68.4291H207.907V73.7291H205.327ZM207.907 66.1891H210.227C211.607 66.1891 212.467 65.3691 212.467 63.9491C212.467 62.5891 211.887 61.7491 209.867 61.7491H207.907V66.1891ZM218.491 73.7291V59.5291H226.991V61.7491H221.071V65.4691H225.851V67.6891H221.071V71.5091H227.311V73.7291H218.491ZM228.915 72.0291L230.315 70.0891C230.315 70.0891 231.855 71.5891 233.855 71.5891C234.935 71.5891 235.915 71.0291 235.915 69.8691C235.915 67.3291 229.215 67.7691 229.215 63.4091C229.215 61.0491 231.255 59.2891 233.975 59.2891C236.775 59.2891 238.215 60.8091 238.215 60.8091L237.095 62.9091C237.095 62.9091 235.735 61.6691 233.955 61.6691C232.755 61.6691 231.815 62.3691 231.815 63.3691C231.815 65.8891 238.495 65.2691 238.495 69.8091C238.495 72.0691 236.775 73.9691 233.815 73.9691C230.655 73.9691 228.915 72.0291 228.915 72.0291ZM241.069 73.7291V59.5291H249.569V61.7491H243.649V65.4691H248.429V67.6891H243.649V71.5091H249.889V73.7291H241.069ZM260.833 73.7291L259.633 70.0891H254.653L253.453 73.7291H250.793L255.793 59.5291H258.493L263.493 73.7291H260.833ZM257.173 61.9891H257.133C257.133 61.9891 256.813 63.3891 256.533 64.1891L255.273 67.9891H258.993L257.733 64.1891C257.473 63.3891 257.173 61.9891 257.173 61.9891ZM265.307 73.7291V59.5291H269.887C271.427 59.5291 272.127 59.6491 272.747 59.9291C274.167 60.5691 275.067 61.9291 275.067 63.8091C275.067 65.5091 274.167 67.0891 272.667 67.6891V67.7291C272.667 67.7291 272.867 67.9291 273.147 68.4291L276.067 73.7291H273.187L270.367 68.4291H267.887V73.7291H265.307ZM267.887 66.1891H270.207C271.587 66.1891 272.447 65.3691 272.447 63.9491C272.447 62.5891 271.867 61.7491 269.847 61.7491H267.887V66.1891ZM277.413 66.5691C277.413 62.4491 280.533 59.2891 284.713 59.2891C288.173 59.2891 289.953 61.2291 289.953 61.2291L288.713 63.1491C288.713 63.1491 287.093 61.6491 284.833 61.6491C281.833 61.6491 280.073 63.8891 280.073 66.5291C280.073 69.2291 281.893 71.6091 284.853 71.6091C287.313 71.6091 288.973 69.8091 288.973 69.8091L290.333 71.6691C290.333 71.6691 288.373 73.9691 284.753 73.9691C280.413 73.9691 277.413 70.7491 277.413 66.5691ZM292.71 73.7291V59.5291H295.29V65.5491H301.79V59.5291H304.37V73.7291H301.79V67.7691H295.29V73.7291H292.71ZM168.672 91.7291L173.092 84.5291L168.852 77.5291H171.792L173.732 81.0091C174.192 81.8291 174.632 82.7491 174.632 82.7491H174.672C174.672 82.7491 175.072 81.8491 175.532 81.0091L177.512 77.5291H180.472L176.192 84.5291L180.632 91.7291H177.732L175.532 87.9091C175.072 87.0891 174.652 86.2291 174.652 86.2291H174.612C174.612 86.2291 174.212 87.0891 173.732 87.9091L171.552 91.7291H168.672ZM181.534 84.5691C181.534 80.4491 184.654 77.2891 188.834 77.2891C192.294 77.2891 194.074 79.2291 194.074 79.2291L192.834 81.1491C192.834 81.1491 191.214 79.6491 188.954 79.6491C185.954 79.6491 184.194 81.8891 184.194 84.5291C184.194 87.2291 186.014 89.6091 188.974 89.6091C191.434 89.6091 193.094 87.8091 193.094 87.8091L194.454 89.6691C194.454 89.6691 192.494 91.9691 188.874 91.9691C184.534 91.9691 181.534 88.7491 181.534 84.5691ZM196.831 91.7291V77.5291H205.331V79.7491H199.411V83.4691H204.191V85.6891H199.411V89.5091H205.651V91.7291H196.831ZM208.335 91.7291V77.5291H210.915V89.5091H217.055V91.7291H208.335ZM219.116 91.7291V77.5291H227.616V79.7491H221.696V83.4691H226.476V85.6891H221.696V89.5091H227.936V91.7291H219.116ZM230.62 91.7291V77.5291H235.2C236.74 77.5291 237.44 77.6491 238.06 77.9291C239.48 78.5691 240.38 79.9291 240.38 81.8091C240.38 83.5091 239.48 85.0891 237.98 85.6891V85.7291C237.98 85.7291 238.18 85.9291 238.46 86.4291L241.38 91.7291H238.5L235.68 86.4291H233.2V91.7291H230.62ZM233.2 84.1891H235.52C236.9 84.1891 237.76 83.3691 237.76 81.9491C237.76 80.5891 237.18 79.7491 235.16 79.7491H233.2V84.1891ZM252.044 91.7291L250.844 88.0891H245.864L244.664 91.7291H242.004L247.004 77.5291H249.704L254.704 91.7291H252.044ZM248.384 79.9891H248.344C248.344 79.9891 248.024 81.3891 247.744 82.1891L246.484 85.9891H250.204L248.944 82.1891C248.684 81.3891 248.384 79.9891 248.384 79.9891ZM258.638 91.7291V79.7491H253.978V77.5291H265.878V79.7491H261.218V91.7291H258.638ZM266.652 84.5291C266.652 80.4691 269.812 77.2891 273.992 77.2891C278.172 77.2891 281.332 80.4691 281.332 84.5291C281.332 88.7091 278.172 91.9691 273.992 91.9691C269.812 91.9691 266.652 88.7091 266.652 84.5291ZM269.312 84.5291C269.312 87.4491 271.392 89.6091 273.992 89.6091C276.592 89.6091 278.672 87.4491 278.672 84.5291C278.672 81.7291 276.592 79.6491 273.992 79.6491C271.392 79.6491 269.312 81.7291 269.312 84.5291ZM283.96 91.7291V77.5291H288.54C290.08 77.5291 290.78 77.6491 291.4 77.9291C292.82 78.5691 293.72 79.9291 293.72 81.8091C293.72 83.5091 292.82 85.0891 291.32 85.6891V85.7291C291.32 85.7291 291.52 85.9291 291.8 86.4291L294.72 91.7291H291.84L289.02 86.4291H286.54V91.7291H283.96ZM286.54 84.1891H288.86C290.24 84.1891 291.1 83.3691 291.1 81.9491C291.1 80.5891 290.52 79.7491 288.5 79.7491H286.54V84.1891Z" fill="#000066"/>
</svg>
